<svg width="568" height="160" viewBox="0 0 568 160" fill="none" xmlns="http://www.w3.org/2000/svg">
<path fill-rule="evenodd" clip-rule="evenodd" d="M151 4C153.209 4 155 5.79086 155 8V43.3726L209 43.3205V8C209 6.89543 209.895 6 211 6C212.105 6 213 6.89543 213 8V43.3166L265 43.2664V8C265 6.89543 265.895 6 267 6C268.105 6 269 6.89543 269 8V43.2626L321 43.2124V8C321 6.89543 321.895 6 323 6C324.105 6 325 6.89543 325 8V43.2085L377 43.1583V8C377 6.89543 377.895 6 379 6C380.105 6 381 6.89543 381 8V43.1544L433 43.1042V8C433 6.89543 433.895 6 435 6C436.105 6 437 6.89543 437 8V43.1004L489 43.0502V8C489 6.89543 489.895 6 491 6C492.105 6 493 6.89543 493 8V43.0463L540.996 43L544.996 42.9961L545 46.9961V8C545 6.89543 545.895 6 547 6C548.105 6 549 6.89543 549 8V149.5V151.5H548.437C548.478 151.66 548.5 151.827 548.5 152C548.5 153.105 547.605 154 546.5 154H155H147H24C22.8954 154 22 153.105 22 152C22 150.895 22.8954 150 24 150H147V102H24C22.8954 102 22 101.105 22 100C22 98.8954 22.8954 98 24 98H147V51.3803L24.0039 51.499C21.7947 51.5012 20.0021 49.712 20 47.5029C19.9979 45.2938 21.787 43.5012 23.9961 43.499L147 43.3803V8C147 5.79086 148.791 4 151 4ZM489 51.0502L437 51.1004V98H489V51.0502ZM493 98V51.0463L541.004 51L545 50.9961V98H493ZM489 102H437V150H489V102ZM493 150V102H545V149.5V150H493ZM381 51.1544L433 51.1043V98H381V51.1544ZM381 102H433V150H381V102ZM377 51.1583L325 51.2085V98H377V51.1583ZM377 102H325V150H377V102ZM269 51.2626L321 51.2124V98H269V51.2626ZM269 102H321V150H269V102ZM265 51.2664L213 51.3166V98H265V51.2664ZM265 102H213V150H265V102ZM209 150V102H155V150H209ZM209 98V51.3205L155 51.3726V98H209Z" fill="#4C2619"/>
<path d="M189.324 25.5547H174.891L174.52 27.4297C173.348 32.7422 170.561 36.8633 166.16 39.793C166.134 39.819 166.095 39.832 166.043 39.832C165.861 39.832 165.77 39.7539 165.77 39.5977C165.77 39.5716 165.776 39.5456 165.789 39.5195C167.26 37.7096 168.387 35.8932 169.168 34.0703C169.897 32.3776 170.457 30.431 170.848 28.2305C171.382 25.1185 171.648 20.4831 171.648 14.3242C171.648 10.0664 171.564 6.6875 171.395 4.1875C173.048 4.8776 174.559 5.63932 175.926 6.47266H188.973C190.001 5.22266 190.665 4.59766 190.965 4.59766C191.251 4.59766 192.039 5.07943 193.328 6.04297C193.966 6.53776 194.285 6.92188 194.285 7.19531C194.285 7.45573 193.927 7.83984 193.211 8.34766V12.8398L193.328 35.5938C193.328 36.5964 193.198 37.3451 192.938 37.8398C192.716 38.2956 192.326 38.6797 191.766 38.9922C190.906 39.526 189.865 39.793 188.641 39.793C188.198 39.793 187.911 39.7214 187.781 39.5781C187.664 39.4479 187.573 39.1875 187.508 38.7969C187.299 37.4036 185.783 36.4076 182.957 35.8086C182.853 35.7826 182.801 35.6849 182.801 35.5156C182.801 35.3594 182.853 35.2812 182.957 35.2812C185.027 35.3854 186.909 35.4375 188.602 35.4375C188.914 35.4375 189.116 35.3854 189.207 35.2812C189.285 35.1901 189.324 35.0143 189.324 34.7539V25.5547ZM189.324 24.6367V16.2773H175.477C175.438 19.7409 175.281 22.5273 175.008 24.6367H189.324ZM189.324 15.3594V7.39062H175.555V8.95312C175.555 11.8047 175.542 13.9401 175.516 15.3594H189.324Z" fill="#4C2619"/>
<path d="M239.879 19.0703C239.358 23.7318 238.141 27.4557 236.227 30.2422C234.391 32.7682 232.177 34.806 229.586 36.3555C227.242 37.7487 224.391 38.8815 221.031 39.7539C220.823 39.793 220.719 39.6628 220.719 39.3633C220.719 39.2982 220.745 39.2526 220.797 39.2266C226.461 36.5964 230.53 33.1198 233.004 28.7969C234.423 26.2969 235.38 23.237 235.875 19.6172C236.253 16.7917 236.441 12.8919 236.441 7.91797C236.441 6.99349 236.396 5.8737 236.305 4.55859C238.648 4.80599 240.185 5.02734 240.914 5.22266C241.526 5.39193 241.832 5.61328 241.832 5.88672C241.832 6.31641 241.363 6.70052 240.426 7.03906C240.387 10.4115 240.296 13.1589 240.152 15.2812C240.712 21.3359 242.939 26.1471 246.832 29.7148C249.645 32.319 253.277 34.1875 257.73 35.3203C257.835 35.3333 257.887 35.4115 257.887 35.5547C257.887 35.6979 257.835 35.7826 257.73 35.8086C256.702 35.9258 255.823 36.9089 255.094 38.7578C254.872 39.2656 254.618 39.5195 254.332 39.5195C253.785 39.5195 253.01 39.2266 252.008 38.6406C250.589 37.8203 249.078 36.6615 247.477 35.1641C246.018 33.8229 244.872 32.5404 244.039 31.3164C242.75 29.4284 241.799 27.5339 241.188 25.6328C240.628 23.901 240.191 21.7135 239.879 19.0703ZM229.586 12.5273C229.859 14.0508 229.996 15.4635 229.996 16.7656C229.996 19.1615 229.54 20.9714 228.629 22.1953C227.887 23.1849 226.943 23.6797 225.797 23.6797C225.068 23.6797 224.475 23.4583 224.02 23.0156C223.629 22.625 223.434 22.1367 223.434 21.5508C223.434 20.3789 224.033 19.4479 225.23 18.7578C226.559 17.9896 227.516 17.0781 228.102 16.0234C228.596 15.138 228.948 13.9596 229.156 12.4883C229.169 12.3971 229.234 12.3516 229.352 12.3516C229.495 12.3516 229.573 12.4102 229.586 12.5273ZM254.312 14.9688C254.312 15.4635 253.661 15.7826 252.359 15.9258C249.924 18.7643 246.884 21.1016 243.238 22.9375C243.225 22.9505 243.206 22.957 243.18 22.957C242.984 22.957 242.887 22.8398 242.887 22.6055C242.887 22.5664 242.9 22.5339 242.926 22.5078C244.566 20.6198 246.096 18.3021 247.516 15.5547C248.128 14.3568 248.661 13.0417 249.117 11.6094C251.487 12.8073 252.971 13.6081 253.57 14.0117C254.065 14.3633 254.312 14.6823 254.312 14.9688Z" fill="#4C2619"/>
<path d="M295.957 10.6328V10.7109C295.996 14.2135 296.1 19.7083 296.27 27.1953C296.413 33.0286 296.484 36.0169 296.484 36.1602C296.484 37.3451 296.126 38.276 295.41 38.9531C294.564 39.7604 293.255 40.1641 291.484 40.1641C291.25 40.1641 291.1 40.0924 291.035 39.9492C291.009 39.8841 290.931 39.5716 290.801 39.0117C290.632 38.2044 290.124 37.5794 289.277 37.1367C288.613 36.7852 287.454 36.4076 285.801 36.0039C285.697 35.9779 285.645 35.8737 285.645 35.6914C285.645 35.4961 285.697 35.4115 285.801 35.4375C288.053 35.6849 290.052 35.8086 291.797 35.8086C292.227 35.8086 292.441 35.5807 292.441 35.125V8.03516C292.441 6.68099 292.376 5.39193 292.246 4.16797C294.85 4.42839 296.471 4.64323 297.109 4.8125C297.591 4.95573 297.832 5.16406 297.832 5.4375C297.832 5.89323 297.259 6.34896 296.113 6.80469C297.025 12.3125 298.535 17.0195 300.645 20.9258C301.973 19.4154 303.385 17.4297 304.883 14.9688C305.938 13.1979 306.615 11.8242 306.914 10.8477C309.062 12.0586 310.391 12.8529 310.898 13.2305C311.341 13.569 311.562 13.8815 311.562 14.168C311.562 14.5846 310.99 14.793 309.844 14.793C307.214 17.3971 304.323 19.7344 301.172 21.8047C301.224 21.9089 301.296 22.0326 301.387 22.1758C301.478 22.306 301.536 22.3971 301.562 22.4492C304.401 26.7721 308.6 30.1836 314.16 32.6836C314.238 32.7096 314.277 32.7682 314.277 32.8594C314.277 33.0156 314.212 33.1068 314.082 33.1328C313.353 33.25 312.76 33.5169 312.305 33.9336C311.888 34.2982 311.465 34.8711 311.035 35.6523C310.762 36.1732 310.579 36.4792 310.488 36.5703C310.41 36.6484 310.286 36.6875 310.117 36.6875C309.818 36.6875 309.271 36.3555 308.477 35.6914C307.383 34.7279 306.133 33.3607 304.727 31.5898C303.477 30.0404 302.487 28.6341 301.758 27.3711C298.893 22.319 296.96 16.7396 295.957 10.6328ZM291.484 16.8828C291.484 17.3255 291.016 17.6966 290.078 17.9961C288.438 23.0221 286.51 26.9023 284.297 29.6367C282.331 32.0586 279.642 34.2266 276.23 36.1406C276.23 36.1536 276.217 36.1602 276.191 36.1602C275.957 36.1602 275.84 36.0365 275.84 35.7891C275.84 35.763 275.853 35.737 275.879 35.7109C280.944 31.2969 284.427 24.9818 286.328 16.7656H280.195C279.44 16.7656 278.613 16.8698 277.715 17.0781L277.285 15.5352C278.353 15.7435 279.336 15.8477 280.234 15.8477H286.035C287.194 14.5456 287.917 13.8945 288.203 13.8945C288.516 13.8945 289.29 14.4674 290.527 15.6133C291.165 16.1862 291.484 16.6094 291.484 16.8828Z" fill="#4C2619"/>
<path d="M352.094 15.8867C352.38 29.2591 352.523 36.8698 352.523 38.7188C352.523 39.7865 351.71 40.3203 350.082 40.3203C348.858 40.3203 348.246 39.8776 348.246 38.9922C348.246 38.5885 348.305 35.9128 348.422 30.9648C348.539 26.5508 348.611 22.8529 348.637 19.8711C346.514 23.5299 343.91 26.7266 340.824 29.4609C338.207 31.7786 335.401 33.6276 332.406 35.0078C332.393 35.0208 332.374 35.0273 332.348 35.0273C332.165 35.0273 332.074 34.9297 332.074 34.7344C332.074 34.6823 332.094 34.6432 332.133 34.6172C335.518 31.9349 338.526 28.7253 341.156 24.9883C343.461 21.7461 345.329 18.2956 346.762 14.6367H337.602C336.664 14.6367 335.518 14.7148 334.164 14.8711L333.715 13.4062C335.069 13.6146 336.339 13.7188 337.523 13.7188H348.402V9.12891C348.402 6.98047 348.324 5.125 348.168 3.5625C350.382 3.73177 351.84 3.90104 352.543 4.07031C353.194 4.23958 353.52 4.46745 353.52 4.75391C353.52 5.10547 353.109 5.49609 352.289 5.92578V13.7188H361.605C363.077 11.8568 363.982 10.9258 364.32 10.9258C364.581 10.9258 365.544 11.5768 367.211 12.8789C368.031 13.556 368.441 14.0117 368.441 14.2461C368.441 14.5065 368.272 14.6367 367.934 14.6367H352.699C353.949 18.1523 355.909 21.2448 358.578 23.9141C361.742 26.987 365.583 29.2656 370.102 30.75C370.206 30.7891 370.258 30.8477 370.258 30.9258C370.258 31.0039 370.206 31.0625 370.102 31.1016C369.281 31.375 368.663 31.7591 368.246 32.2539C367.895 32.6706 367.53 33.3411 367.152 34.2656C366.931 34.7734 366.69 35.0273 366.43 35.0273C366.143 35.0273 365.525 34.7083 364.574 34.0703C361.267 31.7656 358.546 28.888 356.41 25.4375C354.822 22.8073 353.383 19.6237 352.094 15.8867Z" fill="#4C2619"/>
<path d="M398.543 17.0391C399.467 17.1953 400.255 17.2734 400.906 17.2734H409.402C410.457 15.776 411.16 15.0273 411.512 15.0273C411.798 15.0273 412.573 15.5612 413.836 16.6289C414.474 17.1497 414.793 17.5404 414.793 17.8008C414.793 18.0612 414.617 18.1914 414.266 18.1914H408.035V24.832H415.633C416.935 23.2565 417.749 22.4688 418.074 22.4688C418.348 22.4688 419.161 23.0156 420.516 24.1094C421.206 24.6823 421.551 25.0924 421.551 25.3398C421.551 25.6133 421.382 25.75 421.043 25.75H408.035V37.5273H417.234C418.862 35.6784 419.832 34.7539 420.145 34.7539C420.431 34.7539 421.342 35.3984 422.879 36.6875C423.673 37.3385 424.07 37.7943 424.07 38.0547C424.07 38.3151 423.901 38.4453 423.562 38.4453H392.664C392 38.4453 391.186 38.5234 390.223 38.6797L389.793 37.2148C390.783 37.4232 391.727 37.5273 392.625 37.5273H404.188V25.75H394.754C394.077 25.75 393.263 25.8281 392.312 25.9844L391.863 24.5195C392.866 24.7279 393.816 24.832 394.715 24.832H404.188V18.1914H401.023C400.359 18.1914 399.546 18.2695 398.582 18.4258L398.23 17.2734C395.522 19.2396 392.234 20.9518 388.367 22.4102C388.354 22.4232 388.335 22.4297 388.309 22.4297C388.126 22.4297 388.035 22.319 388.035 22.0977C388.035 22.0456 388.055 22.0065 388.094 21.9805C394.005 18.3997 398.53 13.8945 401.668 8.46484C402.566 6.88932 403.289 5.28125 403.836 3.64062C406.805 4.4349 408.504 4.91016 408.934 5.06641C409.324 5.22266 409.52 5.41146 409.52 5.63281C409.52 5.98438 409.012 6.29036 407.996 6.55078C410.288 9.32422 412.84 11.5378 415.652 13.1914C418.517 14.8711 421.941 16.0625 425.926 16.7656C426.03 16.7786 426.082 16.8633 426.082 17.0195C426.082 17.1758 426.03 17.2604 425.926 17.2734C425.132 17.4427 424.52 17.8008 424.09 18.3477C423.738 18.8164 423.419 19.5521 423.133 20.5547C422.99 21.0885 422.762 21.3555 422.449 21.3555C422.202 21.3555 421.746 21.1667 421.082 20.7891C419.038 19.6953 417.117 18.3802 415.32 16.8438C412.169 14.1094 409.526 10.8542 407.391 7.07812C404.93 11.1927 401.98 14.513 398.543 17.0391ZM401.082 32.957C401.082 33.7773 400.861 34.4154 400.418 34.8711C400.04 35.2747 399.552 35.4766 398.953 35.4766C398.406 35.4766 397.996 35.3203 397.723 35.0078C397.462 34.6953 397.26 34.1875 397.117 33.4844C396.648 31.0755 395.926 29.2526 394.949 28.0156C394.923 27.9896 394.91 27.957 394.91 27.918C394.91 27.7617 394.988 27.6836 395.145 27.6836C395.171 27.6836 395.197 27.6901 395.223 27.7031C399.129 29.2526 401.082 31.0039 401.082 32.957ZM418.641 29.7148C418.641 29.9492 418.53 30.125 418.309 30.2422C418.1 30.3464 417.664 30.4505 417 30.5547C415.333 32.638 413.139 34.513 410.418 36.1797C410.392 36.1927 410.366 36.1992 410.34 36.1992C410.079 36.1992 409.949 36.082 409.949 35.8477C409.949 35.8216 409.956 35.7956 409.969 35.7695C410.945 34.3893 411.902 32.638 412.84 30.5156C413.413 29.2135 413.803 28.0938 414.012 27.1562C416.225 28.1458 417.553 28.7643 417.996 29.0117C418.426 29.2591 418.641 29.4935 418.641 29.7148Z" fill="#4C2619"/>
<path d="M461.461 37.1953V19.8711H453.414C452.438 19.8711 451.214 19.9492 449.742 20.1055L449.293 18.6406C450.79 18.849 452.177 18.9531 453.453 18.9531H461.461V9.71484C461.461 7.21484 461.376 5.30729 461.207 3.99219C465.087 4.34375 467.027 4.8125 467.027 5.39844C467.027 5.80208 466.533 6.16016 465.543 6.47266V18.9531H471.891C473.531 16.9479 474.521 15.9453 474.859 15.9453C475.12 15.9453 476.103 16.6419 477.809 18.0352C478.694 18.7383 479.137 19.2201 479.137 19.4805C479.137 19.7409 478.961 19.8711 478.609 19.8711H465.543V37.1953H474.586C476.292 35.0339 477.314 33.9531 477.652 33.9531C477.926 33.9531 478.967 34.7018 480.777 36.1992C481.715 36.9544 482.184 37.4622 482.184 37.7227C482.184 37.9831 482.008 38.1133 481.656 38.1133H450.211C449.169 38.1133 447.893 38.1914 446.383 38.3477L445.934 36.8828C447.431 37.0911 448.844 37.1953 450.172 37.1953H461.461Z" fill="#4C2619"/>
<path d="M528.164 35.7109H511.641V37.5469C511.641 38.6146 510.84 39.1484 509.238 39.1484C508.092 39.1484 507.52 38.7057 507.52 37.8203C507.676 32.3906 507.754 25.7956 507.754 18.0352C507.754 13.0221 507.689 8.69922 507.559 5.06641C509.121 5.69141 510.671 6.45312 512.207 7.35156H527.676C528.952 5.9974 529.727 5.32031 530 5.32031C530.286 5.32031 531.074 5.85417 532.363 6.92188C533.001 7.48177 533.32 7.89193 533.32 8.15234C533.32 8.47786 532.923 8.90104 532.129 9.42188V13.9922C532.129 23.1068 532.207 30.8281 532.363 37.1562C532.363 38.25 531.536 38.7969 529.883 38.7969C528.737 38.7969 528.164 38.3542 528.164 37.4688V35.7109ZM528.164 34.793V21.6289H511.641V34.793H528.164ZM528.164 20.7109V8.26953H511.641V20.7109H528.164Z" fill="#4C2619"/>
<path d="M48.5312 76.9219C47.2943 78.901 45.5299 79.8906 43.2383 79.8906C40.7383 79.8906 38.7591 78.9922 37.3008 77.1953C36.0378 75.6458 35.4062 73.6732 35.4062 71.2773C35.4062 68.3997 36.3047 66.082 38.1016 64.3242C39.7161 62.7487 41.7474 61.9609 44.1953 61.9609C47.1641 61.9609 49.4818 63.1523 51.1484 65.5352C52.5677 67.5664 53.2773 70.1901 53.2773 73.4062C53.2773 77.4948 52.4245 80.9128 50.7188 83.6602C49.4688 85.6523 47.6589 87.4427 45.2891 89.0312C43.2318 90.3984 41.0703 91.3359 38.8047 91.8438C38.4401 91.8438 38.1211 91.5898 37.8477 91.082C37.6914 90.8607 37.6133 90.6523 37.6133 90.457C37.6133 90.1836 37.763 90.0339 38.0625 90.0078C40.3281 89.8776 42.1641 89.3958 43.5703 88.5625C45.237 87.5599 46.487 86.0365 47.3203 83.9922C48.0495 82.1823 48.5182 79.8255 48.7266 76.9219H48.5312ZM44.1953 63.1914C42.7891 63.1914 41.7214 64.0508 40.9922 65.7695C40.3932 67.1497 40.0938 68.9076 40.0938 71.043C40.0938 73.3216 40.4779 75.1315 41.2461 76.4727C41.9753 77.7357 42.9583 78.3672 44.1953 78.3672C45.875 78.3672 47.2487 77.1953 48.3164 74.8516C48.5508 74.3177 48.668 73.4583 48.668 72.2734C48.668 69.3177 48.2448 67.0326 47.3984 65.418C46.6172 63.9336 45.5495 63.1914 44.1953 63.1914ZM67.0469 72.8789C68.375 72.8789 69.6836 73.1003 70.9727 73.543C72.0404 73.9076 73.3359 74.5 74.8594 75.3203C76.9036 76.4531 78.5508 77.2279 79.8008 77.6445C80.9987 78.0482 82.1576 78.25 83.2773 78.25C86.2982 78.25 89.0326 77.1888 91.4805 75.0664C91.5846 74.9622 91.7083 74.9102 91.8516 74.9102C92.0078 74.9102 92.0859 75.0013 92.0859 75.1836C92.0859 75.3268 92.0469 75.4375 91.9688 75.5156C90.2891 77.4818 88.7396 78.8945 87.3203 79.7539C85.8099 80.6654 84.2409 81.1211 82.6133 81.1211C81.3112 81.1211 80.0156 80.8932 78.7266 80.4375C77.6719 80.0729 76.3828 79.474 74.8594 78.6406C72.776 77.4948 71.1094 76.707 69.8594 76.2773C68.6615 75.8737 67.4961 75.6719 66.3633 75.6719C63.4857 75.6719 60.7839 76.7135 58.2578 78.7969C58.1406 78.875 58.0169 78.9141 57.8867 78.9141C57.7305 78.9141 57.6523 78.8359 57.6523 78.6797C57.6523 78.5104 57.6784 78.3997 57.7305 78.3477C59.4362 76.4076 60.9857 75.0273 62.3789 74.207C63.8633 73.3216 65.4193 72.8789 67.0469 72.8789ZM107.652 61.7656C108.082 61.7656 108.297 61.9219 108.297 62.2344C108.284 62.9505 108.251 64.513 108.199 66.9219C108.16 68.5234 108.141 69.9102 108.141 71.082V83.6016C108.141 85.6849 108.167 87.0065 108.219 87.5664C108.271 88.0742 108.395 88.5234 108.59 88.9141C108.772 89.3047 109.215 89.5716 109.918 89.7148C110.178 89.7669 110.868 89.8516 111.988 89.9688C112.223 89.9948 112.34 90.1901 112.34 90.5547C112.34 90.9323 112.223 91.1211 111.988 91.1211C110.126 91.043 108.154 91.0039 106.07 91.0039C103.909 91.0039 101.884 91.043 99.9961 91.1211C99.7227 91.1211 99.5859 90.9323 99.5859 90.5547C99.5859 90.1901 99.7227 89.9948 99.9961 89.9688C101.168 89.8776 101.93 89.7865 102.281 89.6953C102.854 89.5521 103.219 89.2917 103.375 88.9141C103.648 88.3542 103.785 86.5833 103.785 83.6016V69.2852C103.785 67.6055 103.648 66.5833 103.375 66.2188C103.232 65.9714 102.919 65.8477 102.438 65.8477C102.047 65.8477 101.578 65.9258 101.031 66.082L99.4688 66.5117C99.3255 66.5508 99.2279 66.5703 99.1758 66.5703C98.9805 66.5703 98.8438 66.4076 98.7656 66.082C98.7266 65.9128 98.707 65.7956 98.707 65.7305C98.707 65.5742 98.8503 65.4505 99.1367 65.3594C101.819 64.3828 104.658 63.1849 107.652 61.7656ZM127.516 75.7109C132.424 76.7135 134.879 79.2005 134.879 83.1719C134.879 86.0104 133.941 88.2174 132.066 89.793C130.439 91.1602 128.323 91.8438 125.719 91.8438C123.622 91.8438 121.663 91.3229 119.84 90.2812C118.108 89.2005 117.242 88.0807 117.242 86.9219C117.242 86.388 117.529 85.9583 118.102 85.6328C118.609 85.3464 119.28 85.2031 120.113 85.2031C120.816 85.2031 121.402 85.6133 121.871 86.4336C121.936 86.5247 122.203 87.1302 122.672 88.25C123.271 89.8255 124.286 90.6133 125.719 90.6133C127.19 90.6133 128.31 89.8451 129.078 88.3086C129.742 86.9935 130.074 85.2422 130.074 83.0547C130.074 81.2318 129.677 79.7148 128.883 78.5039C128.023 77.1888 126.812 76.5312 125.25 76.5312C125.133 76.5312 124.996 76.5378 124.84 76.5508C123.811 76.6159 123.212 76.6484 123.043 76.6484C122.743 76.6484 122.594 76.5182 122.594 76.2578C122.594 76.1536 122.613 76.0169 122.652 75.8477C122.743 75.2357 122.997 74.9297 123.414 74.9297L124.938 75.0469C126.253 75.0469 127.32 74.5 128.141 73.4062C128.961 72.2865 129.371 70.75 129.371 68.7969C129.371 67.0781 129.046 65.6979 128.395 64.6562C127.796 63.6797 127.001 63.1914 126.012 63.1914C124.605 63.1914 123.603 63.7904 123.004 64.9883C122.796 65.5091 122.691 66.1797 122.691 67C122.691 67.6901 122.366 68.2305 121.715 68.6211C121.181 68.9336 120.504 69.0898 119.684 69.0898C118.46 69.0898 117.848 68.6602 117.848 67.8008C117.848 66.3945 118.674 65.0599 120.328 63.7969C121.943 62.5729 123.837 61.9609 126.012 61.9609C128.512 61.9609 130.491 62.6445 131.949 64.0117C133.264 65.2357 133.922 66.8438 133.922 68.8359C133.922 72.2865 131.786 74.513 127.516 75.5156V75.7109Z" fill="#4C2619"/>
<path d="M32.7539 112.766C33.1836 112.766 33.3984 112.922 33.3984 113.234C33.3854 113.951 33.3529 115.513 33.3008 117.922C33.2617 119.523 33.2422 120.91 33.2422 122.082V134.602C33.2422 136.685 33.2682 138.007 33.3203 138.566C33.3724 139.074 33.4961 139.523 33.6914 139.914C33.8737 140.305 34.3164 140.572 35.0195 140.715C35.2799 140.767 35.9701 140.852 37.0898 140.969C37.3242 140.995 37.4414 141.19 37.4414 141.555C37.4414 141.932 37.3242 142.121 37.0898 142.121C35.2279 142.043 33.2552 142.004 31.1719 142.004C29.0104 142.004 26.9857 142.043 25.0977 142.121C24.8242 142.121 24.6875 141.932 24.6875 141.555C24.6875 141.19 24.8242 140.995 25.0977 140.969C26.2695 140.878 27.0312 140.786 27.3828 140.695C27.9557 140.552 28.3203 140.292 28.4766 139.914C28.75 139.354 28.8867 137.583 28.8867 134.602V120.285C28.8867 118.605 28.75 117.583 28.4766 117.219C28.3333 116.971 28.0208 116.848 27.5391 116.848C27.1484 116.848 26.6797 116.926 26.1328 117.082L24.5703 117.512C24.4271 117.551 24.3294 117.57 24.2773 117.57C24.082 117.57 23.9453 117.408 23.8672 117.082C23.8281 116.913 23.8086 116.796 23.8086 116.73C23.8086 116.574 23.9518 116.451 24.2383 116.359C26.9206 115.383 29.7591 114.185 32.7539 112.766ZM56.6992 134.289V136.047C56.6992 137.57 56.7122 138.475 56.7383 138.762C56.7773 139.217 56.8815 139.647 57.0508 140.051C57.2201 140.454 57.5977 140.728 58.1836 140.871C58.457 140.936 59.043 141.008 59.9414 141.086C60.1237 141.086 60.2148 141.255 60.2148 141.594C60.2148 141.945 60.1107 142.121 59.9023 142.121C57.7148 142.017 55.9896 141.965 54.7266 141.965C53.3724 141.965 51.569 142.017 49.3164 142.121C49.082 142.121 48.9648 141.945 48.9648 141.594C48.9648 141.281 49.082 141.112 49.3164 141.086C50.2279 140.995 50.8398 140.91 51.1523 140.832C51.6211 140.702 51.9206 140.493 52.0508 140.207C52.4023 139.478 52.5781 138.117 52.5781 136.125V134.328H46.25L42.4609 134.367C42.1094 134.367 41.9336 134.022 41.9336 133.332C41.9336 132.785 42.0833 132.238 42.3828 131.691C46.5365 124.4 50.1042 118.41 53.0859 113.723L56.6602 112.766C56.8685 112.766 56.9727 112.922 56.9727 113.234C56.9596 113.951 56.9271 115.689 56.875 118.449C56.849 120.415 56.8164 122.082 56.7773 123.449L56.6992 132.805C57.832 132.805 59.1732 132.74 60.7227 132.609C60.8919 132.609 60.9766 132.668 60.9766 132.785C60.9766 132.824 60.9766 132.857 60.9766 132.883L60.6055 134.094C60.5534 134.276 60.4362 134.367 60.2539 134.367C59.4857 134.315 58.3008 134.289 56.6992 134.289ZM52.5781 132.844L52.6562 124.172C52.6953 121.268 52.7734 118.788 52.8906 116.73C49.2448 122.512 46.1979 127.668 43.75 132.199C43.6589 132.368 43.6133 132.505 43.6133 132.609C43.6133 132.766 43.776 132.844 44.1016 132.844H52.5781ZM73.9453 123.879C75.2734 123.879 76.582 124.1 77.8711 124.543C78.9388 124.908 80.2344 125.5 81.7578 126.32C83.8021 127.453 85.4492 128.228 86.6992 128.645C87.8971 129.048 89.056 129.25 90.1758 129.25C93.1966 129.25 95.931 128.189 98.3789 126.066C98.4831 125.962 98.6068 125.91 98.75 125.91C98.9062 125.91 98.9844 126.001 98.9844 126.184C98.9844 126.327 98.9453 126.438 98.8672 126.516C97.1875 128.482 95.638 129.895 94.2188 130.754C92.7083 131.665 91.1393 132.121 89.5117 132.121C88.2096 132.121 86.9141 131.893 85.625 131.438C84.5703 131.073 83.2812 130.474 81.7578 129.641C79.6745 128.495 78.0078 127.707 76.7578 127.277C75.5599 126.874 74.3945 126.672 73.2617 126.672C70.3841 126.672 67.6823 127.714 65.1562 129.797C65.0391 129.875 64.9154 129.914 64.7852 129.914C64.6289 129.914 64.5508 129.836 64.5508 129.68C64.5508 129.51 64.5768 129.4 64.6289 129.348C66.3346 127.408 67.8841 126.027 69.2773 125.207C70.7617 124.322 72.3177 123.879 73.9453 123.879ZM114.551 112.766C114.98 112.766 115.195 112.922 115.195 113.234C115.182 113.951 115.15 115.513 115.098 117.922C115.059 119.523 115.039 120.91 115.039 122.082V134.602C115.039 136.685 115.065 138.007 115.117 138.566C115.169 139.074 115.293 139.523 115.488 139.914C115.671 140.305 116.113 140.572 116.816 140.715C117.077 140.767 117.767 140.852 118.887 140.969C119.121 140.995 119.238 141.19 119.238 141.555C119.238 141.932 119.121 142.121 118.887 142.121C117.025 142.043 115.052 142.004 112.969 142.004C110.807 142.004 108.783 142.043 106.895 142.121C106.621 142.121 106.484 141.932 106.484 141.555C106.484 141.19 106.621 140.995 106.895 140.969C108.066 140.878 108.828 140.786 109.18 140.695C109.753 140.552 110.117 140.292 110.273 139.914C110.547 139.354 110.684 137.583 110.684 134.602V120.285C110.684 118.605 110.547 117.583 110.273 117.219C110.13 116.971 109.818 116.848 109.336 116.848C108.945 116.848 108.477 116.926 107.93 117.082L106.367 117.512C106.224 117.551 106.126 117.57 106.074 117.57C105.879 117.57 105.742 117.408 105.664 117.082C105.625 116.913 105.605 116.796 105.605 116.73C105.605 116.574 105.749 116.451 106.035 116.359C108.717 115.383 111.556 114.185 114.551 112.766ZM137.227 127.922C135.99 129.901 134.225 130.891 131.934 130.891C129.434 130.891 127.454 129.992 125.996 128.195C124.733 126.646 124.102 124.673 124.102 122.277C124.102 119.4 125 117.082 126.797 115.324C128.411 113.749 130.443 112.961 132.891 112.961C135.859 112.961 138.177 114.152 139.844 116.535C141.263 118.566 141.973 121.19 141.973 124.406C141.973 128.495 141.12 131.913 139.414 134.66C138.164 136.652 136.354 138.443 133.984 140.031C131.927 141.398 129.766 142.336 127.5 142.844C127.135 142.844 126.816 142.59 126.543 142.082C126.387 141.861 126.309 141.652 126.309 141.457C126.309 141.184 126.458 141.034 126.758 141.008C129.023 140.878 130.859 140.396 132.266 139.562C133.932 138.56 135.182 137.036 136.016 134.992C136.745 133.182 137.214 130.826 137.422 127.922H137.227ZM132.891 114.191C131.484 114.191 130.417 115.051 129.688 116.77C129.089 118.15 128.789 119.908 128.789 122.043C128.789 124.322 129.173 126.132 129.941 127.473C130.671 128.736 131.654 129.367 132.891 129.367C134.57 129.367 135.944 128.195 137.012 125.852C137.246 125.318 137.363 124.458 137.363 123.273C137.363 120.318 136.94 118.033 136.094 116.418C135.312 114.934 134.245 114.191 132.891 114.191Z" fill="#4C2619"/>
<circle cx="182" cy="75" r="17.5" stroke="#4C2619" stroke-width="5"/>
<circle cx="182" cy="126" r="17.5" stroke="#4C2619" stroke-width="5"/>
<circle cx="239" cy="75" r="17.5" stroke="#4C2619" stroke-width="5"/>
<circle cx="295" cy="75" r="17.5" stroke="#4C2619" stroke-width="5"/>
<circle cx="351" cy="75" r="17.5" stroke="#4C2619" stroke-width="5"/>
<circle cx="407" cy="75" r="17.5" stroke="#4C2619" stroke-width="5"/>
<circle cx="464" cy="75" r="17.5" stroke="#4C2619" stroke-width="5"/>
<path d="M283 126H308" stroke="#4C2619" stroke-width="8" stroke-linecap="round"/>
<path d="M451 126H476" stroke="#4C2619" stroke-width="8" stroke-linecap="round"/>
<path d="M507 126H532" stroke="#4C2619" stroke-width="8" stroke-linecap="round"/>
<path d="M507 75H532" stroke="#4C2619" stroke-width="8" stroke-linecap="round"/>
<circle cx="407" cy="126" r="17.5" stroke="#4C2619" stroke-width="5"/>
<circle cx="351" cy="126" r="17.5" stroke="#4C2619" stroke-width="5"/>
<circle cx="239" cy="126" r="17.5" stroke="#4C2619" stroke-width="5"/>
</svg>
