<svg width="96" height="96" viewBox="0 0 96 96" fill="none" xmlns="http://www.w3.org/2000/svg">
<path d="M74.8723 2.57111C79.6162 3.70864 84.2099 6.45702 86.85 8.03654C87.3118 8.31284 87.7139 8.55342 88.0465 8.7433C90.119 9.92655 91.283 11.9918 91.9641 13.579C92.7118 15.3215 93.2474 17.3775 93.6271 19.5208C94.3904 23.8288 94.6319 29.1156 94.3309 34.3942C94.0303 39.667 93.175 45.1748 91.6097 49.8802C90.1146 54.375 87.6582 59.0957 83.4844 61.4786C75.5084 66.0322 64.1695 75.3223 57.0583 87.8741L53.4763 94.1966L47.0403 84.9084L42.0933 95.6173L37.7114 87.8716C33.8155 80.985 27.4422 76.3631 20.5383 71.3565L20.5366 71.3553L20.535 71.3541C19.7441 70.7805 18.9462 70.2019 18.1443 69.6143C10.8547 64.2723 2.66131 57.7848 1.51458 46.9813C-0.860161 24.6085 5.30293 13.7755 13.4564 8.80901C17.6968 6.22605 23.3643 5.82618 27.7879 6.07134C30.1137 6.20023 32.3549 6.52251 34.2793 6.95383C36.1033 7.36266 37.9836 7.94363 39.3843 8.7433C42.9253 10.7649 44.8873 13.3314 45.9087 15.8382C46.1615 16.4588 46.3647 17.1591 46.5215 17.8146L43.4657 22.2655C43.3336 22.1244 43.1992 21.9843 43.0626 21.8452C39.9523 18.6781 36.2898 16.6661 32.9444 16.0077C32.7402 15.9552 32.5195 15.902 32.282 15.8487C30.8583 15.5296 29.1164 15.275 27.2825 15.1734C23.3868 14.9575 20.0289 15.4821 18.206 16.5925C14.6734 18.7443 9.6826 24.151 10.1464 39.7112C11.0288 48.9922 15.594 55.3242 21.3841 60.653C22.0741 61.18 22.7933 61.7159 23.5407 62.2636C24.3061 62.8245 25.0995 63.3964 25.9128 63.9826L25.9144 63.9838L25.9165 63.9853C30.7351 67.4584 36.2544 71.4367 40.814 76.6332L45.4498 66.5979L52.9264 77.3878C57.3235 71.1592 62.4857 65.8581 67.5324 61.6194C74.2419 54.7674 83.9372 43.484 85.2363 33.076C85.2716 32.1181 85.2685 31.2244 85.21 30.3481C85.0845 28.4669 84.7009 26.6629 83.8585 24.4943C74.2267 9.49839 65.7073 16.8247 59.7006 24.0845C54.9081 31.3618 50.0127 36.2557 45.6252 37.8554L45.7242 37.7093L51.2845 22.107L51.2592 22.098C51.3611 21.8419 51.4651 21.5772 51.5731 21.302C52.5208 18.8891 53.7836 15.6737 56.7154 10.4661C58.8744 6.63143 61.7604 4.08894 65.2134 2.85425C68.5748 1.65231 71.9612 1.87308 74.8723 2.57111Z" fill="#FFC1EA"/>
</svg>
