<svg width="64" height="64" viewBox="0 0 64 64" fill="none" xmlns="http://www.w3.org/2000/svg">
<path d="M49.578 2.3759C52.6976 3.1246 55.7184 4.93353 57.4545 5.97315C57.7582 6.155 58.0226 6.31335 58.2413 6.43833C59.6042 7.21712 60.3697 8.57643 60.8175 9.62112C61.3092 10.768 61.6614 12.1212 61.9111 13.5319C62.4131 16.3674 62.5718 19.847 62.374 23.3213C62.1763 26.7918 61.6138 30.4169 60.5845 33.5139C59.6013 36.4723 57.986 39.5794 55.2413 41.1478C49.9964 44.1449 42.5399 50.2595 37.8637 58.5209L35.5082 62.6822L31.2759 56.5689L28.0228 63.6173L25.1412 58.5192C22.5793 53.9866 18.3882 50.9445 13.8483 47.6493L13.8472 47.6485L13.8461 47.6477C13.326 47.2702 12.8013 46.8894 12.274 46.5026C7.48041 42.9866 2.09247 38.7166 1.33839 31.6059C-0.223233 16.8805 3.82959 9.75042 9.19125 6.48157C11.9797 4.78151 15.7067 4.51833 18.6156 4.67968C20.145 4.76452 21.6188 4.97664 22.8843 5.26053C24.0837 5.52961 25.3203 5.912 26.2413 6.43833C28.5699 7.76893 29.8601 9.45814 30.5317 11.1081C30.698 11.5165 30.8316 11.9775 30.9347 12.4089L28.9252 15.3384C28.8384 15.2456 28.75 15.1533 28.6602 15.0618C26.6148 12.9772 24.2064 11.653 22.0065 11.2196C21.8722 11.1851 21.7271 11.15 21.5709 11.115C20.6346 10.905 19.4892 10.7374 18.2833 10.6705C15.7215 10.5284 13.5133 10.8737 12.3146 11.6045C9.99153 13.0208 6.70963 16.5794 7.01464 26.8209C7.59491 32.9294 10.5969 37.0971 14.4045 40.6044C14.8582 40.9513 15.3311 41.304 15.8227 41.6645C16.326 42.0337 16.8477 42.4101 17.3826 42.7959L17.3836 42.7966L17.385 42.7977C20.5536 45.0836 24.1831 47.702 27.1815 51.1223L30.23 44.5172L35.1465 51.6189C38.0381 47.5194 41.4327 44.0303 44.7514 41.2405C49.1635 36.7306 55.5391 29.304 56.3934 22.4537C56.4166 21.8232 56.4146 21.235 56.3761 20.6583C56.2936 19.4201 56.0413 18.2327 55.4873 16.8054C49.1535 6.93531 43.5512 11.7574 39.6012 16.5357C36.4497 21.3254 33.2305 24.5465 30.3453 25.5994L30.4104 25.5033L34.0668 15.2341L34.0502 15.2282C34.1172 15.0596 34.1856 14.8853 34.2566 14.7042C34.8798 13.1161 35.7102 10.9998 37.6382 7.57227C39.0579 5.04833 40.9558 3.37491 43.2264 2.56226C45.4368 1.77115 47.6637 1.91647 49.578 2.3759Z" fill="white"/>
</svg>
